<svg width="298" height="28" viewBox="0 0 298 28" fill="none" xmlns="http://www.w3.org/2000/svg">
<path d="M15.9961 16.418L12.0762 5.00977L7.91016 16.418H15.9961ZM10.248 1.17773H14.2031L23.5723 27H19.7402L17.1211 19.2656H6.9082L4.11328 27H0.527344L10.248 1.17773Z" fill="black"/>
<path d="M38.7598 13.0078C40.4004 13.0078 41.6953 12.6797 42.6445 12.0234C43.6055 11.3672 44.0859 10.1836 44.0859 8.47266C44.0859 6.63281 43.418 5.37891 42.082 4.71094C41.3672 4.35938 40.4121 4.18359 39.2168 4.18359H30.6738V13.0078H38.7598ZM27.1758 1.17773H39.1289C41.0977 1.17773 42.7207 1.46484 43.998 2.03906C46.4238 3.14062 47.6367 5.17383 47.6367 8.13867C47.6367 9.68555 47.3145 10.9512 46.6699 11.9355C46.0371 12.9199 45.1465 13.7109 43.998 14.3086C45.0059 14.7188 45.7617 15.2578 46.2656 15.9258C46.7812 16.5938 47.0684 17.6777 47.127 19.1777L47.25 22.6406C47.2852 23.625 47.3672 24.3574 47.4961 24.8379C47.707 25.6582 48.082 26.1855 48.6211 26.4199V27H44.332C44.2148 26.7773 44.1211 26.4902 44.0508 26.1387C43.9805 25.7871 43.9219 25.1074 43.875 24.0996L43.6641 19.793C43.582 18.1055 42.9551 16.9746 41.7832 16.4004C41.1152 16.084 40.0664 15.9258 38.6367 15.9258H30.6738V27H27.1758V1.17773Z" fill="black"/>
<path d="M52.6816 1.17773H57.6914L65.1094 23.0098L72.4746 1.17773H77.4316V27H74.1094V11.7598C74.1094 11.2324 74.1211 10.3594 74.1445 9.14062C74.168 7.92188 74.1797 6.61523 74.1797 5.2207L66.8145 27H63.3516L55.9336 5.2207V6.01172C55.9336 6.64453 55.9453 7.61133 55.9688 8.91211C56.0039 10.2012 56.0215 11.1504 56.0215 11.7598V27H52.6816V1.17773Z" fill="black"/>
<path d="M96.0117 16.418L92.0918 5.00977L87.9258 16.418H96.0117ZM90.2637 1.17773H94.2188L103.588 27H99.7559L97.1367 19.2656H86.9238L84.1289 27H80.543L90.2637 1.17773Z" fill="black"/>
<path d="M117.932 0.509766C120.357 0.509766 122.455 0.978516 124.225 1.91602C126.791 3.26367 128.361 5.625 128.936 9H125.473C125.051 7.11328 124.178 5.74219 122.854 4.88672C121.529 4.01953 119.859 3.58594 117.844 3.58594C115.453 3.58594 113.438 4.48242 111.797 6.27539C110.168 8.06836 109.354 10.7402 109.354 14.291C109.354 17.3613 110.027 19.8633 111.375 21.7969C112.723 23.7188 114.92 24.6797 117.967 24.6797C120.299 24.6797 122.227 24.0059 123.75 22.6582C125.285 21.2988 126.07 19.1074 126.105 16.084H118.02V13.1836H129.357V27H127.107L126.264 23.6777C125.08 24.9785 124.031 25.8809 123.117 26.3848C121.582 27.252 119.631 27.6855 117.264 27.6855C114.205 27.6855 111.574 26.6953 109.371 24.7148C106.969 22.2305 105.768 18.8203 105.768 14.4844C105.768 10.1602 106.939 6.7207 109.283 4.16602C111.51 1.72852 114.393 0.509766 117.932 0.509766Z" fill="black"/>
<path d="M145.951 0.509766C148.377 0.509766 150.475 0.978516 152.244 1.91602C154.811 3.26367 156.381 5.625 156.955 9H153.492C153.07 7.11328 152.197 5.74219 150.873 4.88672C149.549 4.01953 147.879 3.58594 145.863 3.58594C143.473 3.58594 141.457 4.48242 139.816 6.27539C138.188 8.06836 137.373 10.7402 137.373 14.291C137.373 17.3613 138.047 19.8633 139.395 21.7969C140.742 23.7188 142.939 24.6797 145.986 24.6797C148.318 24.6797 150.246 24.0059 151.77 22.6582C153.305 21.2988 154.09 19.1074 154.125 16.084H146.039V13.1836H157.377V27H155.127L154.283 23.6777C153.1 24.9785 152.051 25.8809 151.137 26.3848C149.602 27.252 147.65 27.6855 145.283 27.6855C142.225 27.6855 139.594 26.6953 137.391 24.7148C134.988 22.2305 133.787 18.8203 133.787 14.4844C133.787 10.1602 134.959 6.7207 137.303 4.16602C139.529 1.72852 142.412 0.509766 145.951 0.509766Z" fill="black"/>
<path d="M163.143 1.17773H181.969V4.3418H166.553V12.1816H180.809V15.1699H166.553V23.9238H182.232V27H163.143V1.17773Z" fill="black"/>
<path d="M196.734 24.0117C197.918 24.0117 198.891 23.8887 199.652 23.6426C201.012 23.1855 202.125 22.3066 202.992 21.0059C203.684 19.9629 204.182 18.627 204.486 16.998C204.662 16.0254 204.75 15.123 204.75 14.291C204.75 11.0918 204.111 8.60742 202.834 6.83789C201.568 5.06836 199.523 4.18359 196.699 4.18359H190.494V24.0117H196.734ZM186.979 1.17773H197.438C200.988 1.17773 203.742 2.4375 205.699 4.95703C207.445 7.23047 208.318 10.1426 208.318 13.6934C208.318 16.4355 207.803 18.9141 206.771 21.1289C204.955 25.043 201.832 27 197.402 27H186.979V1.17773Z" fill="black"/>
<path d="M223.98 0.474609C228.539 0.474609 231.914 1.93945 234.105 4.86914C235.816 7.1543 236.672 10.0781 236.672 13.6406C236.672 17.4961 235.693 20.7012 233.736 23.2559C231.439 26.2559 228.164 27.7559 223.91 27.7559C219.938 27.7559 216.814 26.4434 214.541 23.8184C212.514 21.2871 211.5 18.0879 211.5 14.2207C211.5 10.7285 212.367 7.74023 214.102 5.25586C216.328 2.06836 219.621 0.474609 223.98 0.474609ZM224.332 24.627C227.414 24.627 229.641 23.5254 231.012 21.3223C232.395 19.1074 233.086 16.5645 233.086 13.6934C233.086 10.6582 232.289 8.21484 230.695 6.36328C229.113 4.51172 226.945 3.58594 224.191 3.58594C221.52 3.58594 219.34 4.50586 217.652 6.3457C215.965 8.17383 215.121 10.875 215.121 14.4492C215.121 17.3086 215.842 19.7227 217.283 21.6914C218.736 23.6484 221.086 24.627 224.332 24.627Z" fill="black"/>
<path d="M240.855 1.17773H244.986L258.029 22.0957V1.17773H261.352V27H257.432L244.195 6.09961V27H240.855V1.17773Z" fill="black"/>
<path d="M278.93 1.17773L286.348 23.168L293.678 1.17773H297.598L288.176 27H284.467L275.062 1.17773H278.93Z" fill="black"/>
</svg>
